<svg width="175" height="29" viewBox="0 0 175 29" fill="none" xmlns="http://www.w3.org/2000/svg">
<g clip-path="url(#clip0_3215_76)">
<path d="M174.773 20.7522L174.236 18.971L173.732 17.3426C173.732 17.3426 172.139 12.3338 171.93 11.6741C171.674 10.8675 171.422 10.0599 171.173 9.25117L171.134 9.11463L174.665 5.02286L173.005 0.000579834L155.213 0.016875L154.67 0.8513L154.457 0.0179988L136.545 0.0359797L136.106 0.983909L135.933 0.0348559L117.881 0.0545224L117.563 1.19181L117.442 0.0545224L99.2051 0.0713795L99.0303 1.93128L98.9738 0.0713795L80.644 0.0899223L80.5834 1.79024L80.3934 0.0876747L62.2198 0.106779L62.098 1.20305L61.7728 0.107903L53.0094 0.115208L52.3101 4.82901L51.911 3.85635L51.7181 3.84006L50.1861 0.118017L41.534 0.125884L41.3586 1.02998L40.9029 0.126446L32.3359 0.134313L32.1413 0.97829L31.6366 0.134313L23.143 0.143303L22.1547 3.81365L19.8536 3.8159L19.4125 5.41956L15.4116 0.150046L7.14578 0.158474L0.081543 21.3175L7.59155 28.0125H15.774L17.0735 23.2965L17.708 23.9769H19.8973L23.5422 28.0108L31.9501 28.0086L32.1162 27.2455L32.7112 28.0097L41.1844 28.0086L41.3359 27.1832L41.8772 28.0086L50.4309 28.0075L51.0917 23.5847L53.2984 28.0075L61.9663 28.0058L62.0752 26.9938L62.4528 28.0058L80.4831 28.0041L80.5472 26.3959L80.746 28.0047L98.9208 28.0019L99.0962 26.2442L99.1574 28.0019L108.073 28.0002L108.353 26.7651L108.437 28.0002L117.245 27.9985L117.618 26.9376L117.728 27.9985H126.44L126.889 27.0539L127.019 27.9985H135.648L136.166 27.1365L136.312 27.9979L144.866 27.9945L149.811 21.1967L149.574 20.1077L152.315 20.106L156.184 14.9382L159.515 27.9934L167.911 27.9923L174.919 21.2613L174.773 20.7522ZM89.8375 15.5855L89.9283 12.6968L98.5117 12.6917L98.5869 11.732L98.7221 15.5827L89.8375 15.5855V15.5855Z" fill="#0E131E"/>
<path d="M15.7892 4.94923L14.6471 8.79039H19.7155L20.7802 4.99699L23.097 4.99531L24.0836 1.31653L30.7632 1.30979L26.0549 20.828L18.8537 20.8303L21.0115 12.5422L18.412 12.5394L17.2874 16.5767L12.6228 16.5784L13.7859 12.5372L11.1514 12.5439L8.61137 20.8331L1.54248 20.837L8.03215 1.3317L14.5883 1.32552L13.5009 4.86775L15.7892 4.94923ZM39.9741 1.34912L35.9942 20.873L28.7913 20.8758L33.2951 1.35474L39.9741 1.34912ZM49.7154 14.5415L50.3121 10.5053L47.7032 10.4581L45.9784 20.8224L38.7662 20.8235L42.5445 1.29911L49.2305 1.29293L48.6449 4.90765L50.9338 4.96384L50.3913 8.73982L52.9651 8.77466L54.0636 1.28731L60.7543 1.28169L58.41 20.8179L51.1902 20.8207L52.094 14.5982L49.7154 14.5415ZM78.5532 16.7896L78.3708 20.8117L61.1686 20.8168L63.3101 1.27945L79.2572 1.26371L79.0992 4.72278L69.7181 4.73121L69.4227 8.71678L78.918 8.74151L78.7467 12.5175L69.0725 12.5237L68.7473 16.7537L78.5532 16.7896ZM172.108 1.17606L173.253 4.64412L168.596 4.64749L168.626 4.75481C168.818 5.51338 169.026 6.28487 169.25 7.07266C169.476 7.86326 169.713 8.66678 169.959 9.48097C170.209 10.298 170.462 11.1268 170.726 11.9556C170.989 12.7895 171.256 13.6295 171.523 14.4684C171.684 14.9781 171.846 15.4916 172.01 16.0125C172.177 16.534 172.344 17.0588 172.508 17.587C172.675 18.1168 172.839 18.6495 173.003 19.1817C173.166 19.7149 173.329 20.2481 173.484 20.7814L166.215 20.7836L161.646 4.65479L156.986 4.65873L156.067 1.19123L172.108 1.17606V1.17606ZM155.374 8.59317L156.366 12.4725L146.641 12.4776L148.442 20.7893L141.187 20.7909L137.472 1.20865L153.494 1.19347L154.377 4.66041L144.946 4.66828L145.797 8.58923L155.374 8.59317ZM127.495 14.4774L128.391 20.796L121.143 20.7977L118.899 1.22663L134.902 1.21146L138.412 20.7943L131.162 20.796L130.218 14.4864L127.495 14.4774V14.4774ZM132.194 6.79115L131.787 4.30529L128.618 4.30866L128.91 6.58661L126.423 6.56751L126.102 4.31035L123.036 4.31428L123.359 6.79789L126.173 6.79676L126.303 7.71042L124.888 7.71154L125.405 11.5403L127.103 11.5387L126.976 10.2367L129.493 10.2272L129.703 11.5364L131.424 11.5353L130.821 7.72447L129.418 7.7166L129.296 6.79171L132.194 6.79115V6.79115ZM114.924 10.6643L117.316 10.6627L118.375 20.7977L111.135 20.8016L110.489 12.5506L107.808 12.4871L108.365 20.8016L101.125 20.8056L100.348 1.24461L116.333 1.23L117.09 8.48809L114.704 8.48584L114.924 10.6643V10.6643ZM110.203 8.7224L109.889 4.69806L107.287 4.69862L107.555 8.72353L110.203 8.7224V8.7224ZM88.6144 4.71492L97.8877 4.70761L97.7845 1.24629L81.817 1.26259L81.1347 20.81L98.3614 20.8056L98.2419 16.7863L88.3923 16.7896L88.6144 4.71492Z" fill="#A9A09D"/>
<path d="M2.48711 20.836C1.96791 20.836 1.84904 21.1198 2.22431 21.4665L7.34752 26.2016C7.72162 26.5472 8.45409 26.8321 8.97387 26.8321H13.4841C14.0038 26.8321 14.1379 26.532 13.7842 26.1645L9.25649 21.4985C8.90278 21.1333 8.18663 20.8332 7.66685 20.8332L2.48711 20.836V20.836ZM19.7989 20.831C19.2792 20.831 19.1259 21.1462 19.4598 21.5294L23.4601 26.132C23.7934 26.5174 24.4915 26.831 25.0113 26.831H29.7406C30.2604 26.831 30.4317 26.5022 30.1217 26.0994L26.619 21.5598C26.3084 21.1569 25.6296 20.8276 25.1098 20.8282L19.7989 20.831V20.831Z" fill="#282729"/>
<path d="M13.5668 16.5778C13.0476 16.5778 12.9037 16.884 13.2487 17.2605L17.7 22.1058C18.045 22.4811 18.6737 22.7722 19.0991 22.7514C19.5227 22.7329 19.6259 22.3811 19.327 21.9704L19.017 21.5467C18.7174 21.1371 18.5857 20.4066 18.725 19.9228L18.8113 19.6205C18.9511 19.1384 18.7996 18.4208 18.4774 18.0281L17.8725 17.2914C17.5503 16.8981 16.8615 16.5772 16.3423 16.5772H13.5668V16.5778ZM29.736 20.8758C29.2156 20.8764 29.0437 21.2079 29.3514 21.6113L32.7731 26.097C33.079 26.5016 33.7567 26.832 34.277 26.832H38.9353C39.4545 26.832 39.6537 26.4853 39.3764 26.0605L36.496 21.6456C36.2192 21.2208 35.5683 20.8735 35.0486 20.8747L29.736 20.8758V20.8758ZM39.7109 20.8235C39.1917 20.8235 38.9877 21.1736 39.2592 21.6012L42.0353 25.9835C42.3068 26.4111 42.9519 26.7612 43.4723 26.7612H48.0559C48.5763 26.7612 48.8146 26.3931 48.5844 25.943L46.3963 21.64C46.1667 21.1899 45.5549 20.8224 45.0351 20.8224L39.7109 20.8235V20.8235ZM52.1355 20.8202C51.6163 20.8202 51.3698 21.1921 51.5883 21.6467L53.6779 26.0043C53.897 26.46 54.5001 26.8314 55.0199 26.8314H59.7515C60.2713 26.8314 60.5504 26.4459 60.3704 25.9762L58.7347 21.6726C58.5552 21.2023 57.9847 20.8179 57.4644 20.8179L52.1355 20.8202ZM62.1133 20.8174C61.5941 20.8174 61.312 21.2039 61.4868 21.6737L63.0287 25.8301C63.2029 26.3032 63.7717 26.6887 64.2914 26.6887H78.2882C78.8086 26.6887 79.1739 26.2813 79.1011 25.7868L78.5032 21.7125C78.431 21.2157 77.945 20.8112 77.427 20.8112L62.1133 20.8174V20.8174ZM82.0793 20.81C81.5602 20.81 81.1802 21.2174 81.2362 21.7158L81.707 25.925C81.7629 26.424 82.2332 26.8308 82.753 26.8308H96.6775C97.1978 26.8308 97.6728 26.4229 97.7334 25.9262L98.2502 21.7102C98.3114 21.2118 97.935 20.805 97.4158 20.8056L82.0793 20.81V20.81ZM102.071 20.8044C101.551 20.8044 101.073 21.2124 101.007 21.7091L100.462 25.8565C100.397 26.3543 100.768 26.7606 101.288 26.7606H105.948C106.468 26.7606 106.992 26.3616 107.112 25.8745L108.146 21.6877C108.264 21.2 107.94 20.8016 107.42 20.8022L102.071 20.8044V20.8044ZM112.08 20.8011C111.56 20.8011 111.037 21.2006 110.917 21.6883L109.904 25.8037C109.784 26.2914 110.111 26.6904 110.631 26.6904H115.291C115.811 26.6904 116.376 26.3038 116.548 25.8306L118.065 21.658C118.235 21.1854 117.952 20.7982 117.432 20.7988L112.08 20.8011V20.8011ZM122.087 20.7971C121.565 20.7971 120.999 21.1837 120.826 21.6563L119.271 25.9026C119.098 26.3746 119.381 26.7612 119.9 26.7612H124.555C125.075 26.7612 125.681 26.3892 125.902 25.934L127.991 21.6203C128.211 21.1657 127.966 20.7943 127.447 20.7943L122.087 20.7971V20.7971ZM132.107 20.7943C131.587 20.7949 130.976 21.1629 130.748 21.6136L128.563 25.9413C128.336 26.3925 128.575 26.7606 129.094 26.7606H133.898C134.419 26.7606 135.056 26.406 135.315 25.9722L137.94 21.5827C138.2 21.1494 137.988 20.7943 137.467 20.7943H132.107V20.7943ZM142.133 20.7904C141.613 20.7904 140.966 21.141 140.696 21.5692L137.91 25.9824C137.639 26.4105 137.843 26.7612 138.362 26.7612H143.092C143.612 26.7612 144.284 26.4268 144.585 26.0189L147.896 21.5321C148.196 21.1236 148.019 20.7898 147.497 20.7898L142.133 20.7904V20.7904ZM167.161 20.7831C166.642 20.7831 165.935 21.0899 165.591 21.4663L161.434 26.0065C161.089 26.383 161.233 26.6898 161.754 26.6898H166.262C166.783 26.6898 167.512 26.4027 167.884 26.0543L172.81 21.4163C173.181 21.0668 173.061 20.7808 172.54 20.7814L167.161 20.7831V20.7831Z" fill="#282729"/>
<path d="M6.83947 4.57724C6.7911 4.70423 7.17628 4.80931 7.69547 4.81043L12.6491 4.8301C13.1689 4.83235 13.5989 4.7239 13.6071 4.59073C13.6141 4.45643 13.1945 4.3463 12.6748 4.3463H7.87204C7.35167 4.3463 6.88725 4.45025 6.83947 4.57724V4.57724ZM6.49567 14.5038C6.65708 14.0279 6.36514 13.6379 5.84594 13.6379H4.63565C4.11587 13.6379 3.69165 13.734 3.69165 13.8503C3.69165 13.9672 4.11645 14.0638 4.63565 14.0638H5.23468C5.75387 14.0638 6.04698 14.4527 5.8844 14.9292L4.78307 18.1618C4.62166 18.6394 4.91418 19.0282 5.43396 19.0282H9.14526C9.66563 19.0282 10.0904 18.9322 10.0904 18.8153C10.0904 18.6984 9.66563 18.6029 9.14526 18.6029H6.04406C5.5237 18.6029 5.23118 18.2129 5.39434 17.7364L5.48233 17.4819C5.64432 17.0054 6.20256 16.616 6.72176 16.616H9.58638C10.1067 16.616 10.5321 16.5205 10.5321 16.4042C10.5321 16.2862 10.1067 16.1912 9.58638 16.1912H6.86627C6.34707 16.1912 6.05455 15.8029 6.21655 15.3253L6.49567 14.5038ZM26.2496 5.41391C26.3202 4.91832 25.9513 4.5115 25.4327 4.5115L23.9969 4.51319C23.4771 4.51375 23.015 4.60983 22.9684 4.72615C22.9218 4.84077 23.3104 4.93686 23.8302 4.93686H24.9286C25.4484 4.93686 25.8167 5.34311 25.7462 5.83927L25.5446 7.27325C25.4746 7.76997 24.9922 8.17566 24.4735 8.17566H19.9348C19.415 8.17566 18.9902 8.27175 18.9902 8.38806C18.9902 8.50494 19.415 8.60102 19.9348 8.60102H28.8567C29.3765 8.60102 29.8013 8.50494 29.8013 8.38806C29.8013 8.27175 29.3765 8.17566 28.8567 8.17566H26.8061C26.2869 8.17566 25.9175 7.76941 25.9886 7.27325L26.2496 5.41391ZM32.4835 18.4427C32.5767 17.9494 32.5167 17.7567 32.3501 18.0129C32.1828 18.268 31.9684 18.8805 31.8722 19.3744L31.7318 20.097C31.6357 20.5886 31.7959 21.3315 32.0879 21.7473L32.3256 22.0844C32.6181 22.4991 33.0843 23.0003 33.3622 23.1992C33.6396 23.3981 33.6309 23.22 33.3419 22.8037L32.5447 21.654C32.2557 21.2371 32.0954 20.4937 32.1892 20.0003L32.4835 18.4427V18.4427ZM39.585 5.26838C39.585 5.15151 39.1608 5.06329 38.6416 5.07284L36.7793 5.10824C36.2595 5.11892 36.0497 5.20601 36.3125 5.30322C36.5753 5.40099 37.2157 5.48134 37.7349 5.48134H38.641C39.1608 5.48134 39.585 5.38526 39.585 5.26838V5.26838ZM42.3226 19.4755C42.4363 18.9861 42.3792 18.8024 42.1979 19.0659C42.0179 19.3311 41.8011 19.8329 41.716 20.1813C41.6309 20.5308 41.6991 21.1652 41.8681 21.5905C42.0365 22.017 42.3279 22.5564 42.5149 22.789C42.7031 23.0211 42.7235 22.8233 42.5598 22.3468L42.3197 21.6523C42.156 21.1758 42.1134 20.3858 42.2253 19.8975L42.3226 19.4755V19.4755ZM40.5419 14.5358C40.0221 14.5105 39.5926 14.5847 39.585 14.7022C39.5798 14.819 39.9999 14.9348 40.5191 14.9606L45.8003 15.2185C46.3183 15.2433 46.8789 15.4669 47.0444 15.7153C47.2098 15.9614 47.4284 16.1131 47.5298 16.0502C47.6323 15.9872 47.5536 15.69 47.3538 15.3922C47.1551 15.0944 46.5654 14.8291 46.0491 14.8039L40.5419 14.5358V14.5358ZM46.1324 4.59073C46.334 4.72615 46.9243 4.83684 47.4441 4.83684H47.8456C48.3648 4.83684 48.7907 4.74132 48.7907 4.62332C48.7907 4.50757 48.3654 4.40137 47.8456 4.39013L46.7087 4.36653C46.1895 4.35417 45.9302 4.45587 46.1324 4.59073ZM52.4374 14.6639C51.9188 14.6853 51.4969 14.7988 51.5021 14.9151C51.5068 15.032 51.9362 15.1101 52.4543 15.0887L55.5222 14.9634C56.0414 14.9421 56.4027 15.3298 56.3246 15.826L55.6831 19.916C55.6038 20.4105 55.6627 21.209 55.8136 21.6888L55.9471 22.1176C56.098 22.5974 56.3969 23.2313 56.6148 23.5268C56.8328 23.8218 56.8876 23.6712 56.739 23.1908L56.2646 21.6585C56.1166 21.1781 56.0583 20.3796 56.1353 19.8851L56.8403 15.3781C56.9178 14.8825 56.5572 14.4943 56.0374 14.5162L52.4374 14.6639V14.6639ZM53.4886 4.4879C53.4676 4.60309 53.8697 4.76604 54.383 4.84976L59.6117 5.44201C60.1269 5.50382 60.5487 5.45774 60.5487 5.34087C60.5487 5.22287 60.1269 5.07565 59.6117 5.01384L54.4576 4.43059C53.9443 4.3463 53.5078 4.37271 53.4886 4.4879V4.4879ZM64.8661 17.315C64.8709 17.1968 64.8508 17.079 64.8071 16.9685C64.7633 16.8581 64.6969 16.7573 64.6116 16.6723C64.5264 16.5873 64.4242 16.5198 64.3112 16.4739C64.1982 16.428 64.0767 16.4047 63.9541 16.4053H62.0842C61.565 16.4053 61.139 16.5019 61.139 16.6177C61.139 16.7346 61.565 16.8312 62.0842 16.8312H63.4967C63.6193 16.8307 63.7407 16.8542 63.8536 16.9001C63.9665 16.9461 64.0686 17.0136 64.1538 17.0985C64.239 17.1835 64.3055 17.2842 64.3493 17.3946C64.3931 17.505 64.4133 17.6228 64.4086 17.7409L64.3329 19.8447C64.3148 20.3459 64.4057 21.1517 64.5345 21.6366L64.8835 22.952C65.0135 23.4375 65.2547 24.0719 65.4231 24.3612C65.5898 24.6523 65.6335 24.4888 65.5181 23.9999L64.9529 21.5967C64.8387 21.1084 64.7588 20.2987 64.7763 19.798L64.8661 17.315V17.315ZM62.2427 6.97151C62.2427 7.08838 62.6681 7.18503 63.1878 7.18503H64.9744C65.4936 7.18503 66.134 7.07265 66.3968 6.93723C66.6602 6.80013 66.4493 6.69505 65.9301 6.70235L63.1873 6.74506C62.6681 6.75236 62.2427 6.85463 62.2427 6.97151V6.97151ZM74.4016 9.15787C74.3893 8.65609 74.2792 8.24646 74.1557 8.24646C74.0362 8.24646 73.9366 8.65609 73.9366 9.15787V11.2369C73.9366 11.7381 74.0514 11.9073 74.1935 11.6162C74.3346 11.3229 74.4395 10.6744 74.4272 10.1727L74.4016 9.15787ZM76.5524 16.9121C76.541 17.1557 76.4333 17.3858 76.2513 17.555C76.0692 17.7243 75.8268 17.8198 75.574 17.8218H74.1446C73.6254 17.8218 73.1994 18.232 73.1994 18.7338V20.1037C73.1994 20.6055 73.2979 21.0146 73.4209 21.0146C73.5427 21.0146 73.6417 20.6049 73.6417 20.1037V19.1592C73.6417 18.6585 74.0665 18.2494 74.5875 18.2494H76.0023C76.5215 18.2494 76.9609 17.8398 76.9783 17.338L76.9935 16.8969C77.0116 16.3957 76.9265 15.9833 76.8053 15.9782C76.6841 15.9743 76.5693 16.3806 76.5518 16.8806L76.5524 16.9121V16.9121ZM94.6439 17.8606C94.5425 18.0472 94.5052 18.6074 94.56 19.1058L94.6538 19.9644C94.708 20.4628 94.6934 21.2764 94.6229 21.7726L94.0011 26.1138C93.9306 26.6094 93.9936 27.0095 94.1416 27.0033C94.2913 26.9966 94.4656 26.5841 94.5297 26.0868L95.0827 21.781C95.1462 21.2832 95.1532 20.4684 95.0972 19.9705L94.9277 18.4276C94.8723 17.9297 94.7447 17.6741 94.6439 17.8606V17.8606ZM81.3656 24.5613C81.3656 24.6782 81.7904 24.7742 82.3102 24.7742H82.5549C83.0741 24.7742 83.4989 24.6787 83.4989 24.5613C83.4989 24.445 83.0741 24.3489 82.5549 24.3489H82.3102C81.7904 24.3489 81.3656 24.445 81.3656 24.5613ZM83.0584 7.5379C83.3014 7.65478 83.9138 7.84133 84.4207 7.95146L88.061 8.57798C88.5388 8.7769 88.9682 8.85163 89.016 8.74375C89.065 8.63698 88.7008 8.41953 88.2078 8.26219L83.5449 7.49576C83.0345 7.40136 82.8154 7.42103 83.0584 7.5379ZM82.9832 11.4746C83.1854 11.3375 82.9261 11.2408 82.4069 11.2594L82.2367 11.265C81.7158 11.283 81.2922 11.3937 81.2922 11.5106C81.2922 11.6274 81.5899 11.7229 81.953 11.7229C82.3177 11.7229 82.7804 11.6111 82.9832 11.4746V11.4746ZM103.547 7.7503C103.578 8.02339 104.028 8.24702 104.55 8.24702H104.962C105.481 8.24702 105.971 8.26894 106.048 8.29422C106.127 8.32063 106.42 8.52123 106.523 8.46111C106.627 8.40155 106.55 8.2341 106.355 8.09025C106.159 7.94641 105.551 7.8256 105.032 7.82391H104.944C104.424 7.82335 103.952 7.41428 103.894 6.91756L103.315 1.89528C103.256 1.39575 103.11 0.999612 102.99 1.01366C102.871 1.02658 102.817 1.44464 102.875 1.94248L103.335 5.92412C103.393 6.42197 103.012 6.82878 102.494 6.82878H100.995C100.475 6.82878 100.051 6.92431 100.051 7.04006C100.051 7.15693 100.476 7.25246 100.995 7.25246H102.543C103.063 7.25246 103.514 7.47666 103.547 7.7503V7.7503ZM102.915 17.7443C102.95 18.2438 102.767 19.008 102.508 19.4424L102.113 19.8711C101.992 20.3588 101.99 20.7769 102.108 20.8016C102.228 20.8258 102.455 20.456 102.612 19.9784C102.612 19.9784 102.673 19.7705 102.865 19.5081C103.054 19.244 103.266 19.0282 103.33 19.0282C103.394 19.0282 103.42 18.6186 103.385 18.1196L103.221 15.8231C103.211 15.7065 103.226 15.5892 103.266 15.4787C103.306 15.3681 103.37 15.2669 103.452 15.1814C103.535 15.0959 103.636 15.028 103.747 14.9822C103.859 14.9363 103.979 14.9135 104.101 14.9151H107.64C108.16 14.9151 108.584 14.819 108.584 14.7022C108.584 14.5858 108.159 14.4886 107.64 14.4886H103.628C103.109 14.4886 102.711 14.8983 102.747 15.3978L102.915 17.7443V17.7443ZM110.347 15.9794C110.347 16.0962 110.772 16.1923 111.292 16.1923H113.668C114.189 16.1923 114.795 16.0962 115.018 15.9794C115.243 15.8619 115 15.7653 114.481 15.7653L111.291 15.7664C110.773 15.7664 110.347 15.8625 110.347 15.9794V15.9794ZM112.388 9.97262C112.52 10.0777 113.053 10.1642 113.572 10.1642H114.258C114.778 10.1642 115.203 10.0681 115.203 9.95183C115.203 9.83383 114.778 9.74393 114.258 9.75124L113.095 9.76753C112.573 9.77483 112.257 9.86699 112.388 9.97262ZM100.271 24.9158C100.26 25.0322 100.678 25.1575 101.196 25.1929L106.448 25.5575C106.965 25.5941 107.397 25.5278 107.407 25.4109C107.415 25.2946 106.999 25.1704 106.479 25.1339L101.23 24.7703C100.712 24.7344 100.28 24.7995 100.271 24.9158ZM130.931 15.8271C130.411 15.8333 129.987 15.9327 129.988 16.0496C129.988 16.1665 130.414 16.2581 130.934 16.2536L137.356 16.9413C137.872 16.9897 138.331 16.9396 138.372 16.8301C138.415 16.7216 138.026 16.5896 137.51 16.539L130.931 15.8271ZM150.953 7.9627C150.839 8.00147 150.768 8.44257 150.793 8.94378L151.38 11.7971C151.157 12.25 151.063 12.663 151.173 12.7158C151.282 12.7681 151.556 12.4416 151.782 11.9904L151.209 8.80162C151.182 8.30097 151.068 7.92393 150.953 7.9627ZM147.544 2.64374C147.079 2.64374 146.579 2.26164 146.43 1.79695C146.282 1.33057 146.067 0.977698 145.95 1.01254C145.835 1.04681 145.865 1.46711 146.017 1.94585L146.098 2.19927C146.25 2.67858 146.756 3.07022 147.224 3.07022C147.691 3.07022 148.212 3.45681 148.379 3.93218L148.598 4.54578C148.767 5.02002 148.999 5.37683 149.112 5.33862C149.227 5.30153 149.182 4.88235 149.014 4.40867L148.693 3.50569C148.525 3.03201 148.008 2.64374 147.544 2.64374ZM164.99 14.9859C164.471 14.9859 164.047 15.0814 164.047 15.1989C164.047 15.3169 164.472 15.413 164.99 15.413H171.046C171.567 15.413 171.99 15.3169 171.99 15.1989C171.99 15.0814 171.566 14.9859 171.046 14.9859H164.99ZM169.562 4.98462C169.678 4.95372 169.665 4.53285 169.526 4.05018L168.919 1.90652C168.785 1.42272 168.576 1.05243 168.457 1.0839C168.343 1.11424 168.357 1.5351 168.494 2.01834L169.101 4.16087C169.239 4.64411 169.446 5.01496 169.562 4.98462" fill="#0E131E"/>
<path d="M22.7777 4.85978H24.7566C25.2758 4.85978 25.2834 4.77999 24.7735 4.68503L24.0912 4.55579C23.5807 4.45971 23.1903 4.54849 23.2206 4.75471L22.7777 4.85978V4.85978ZM11.7068 23.7442C11.5057 23.5295 10.9178 23.4037 10.4032 23.4638L9.2617 23.5998C8.746 23.6599 8.746 23.7577 9.26229 23.8172L11.1357 24.0296C11.6526 24.0875 11.9096 23.9594 11.7068 23.7442V23.7442ZM30.427 26.0862C30.2866 25.8716 29.747 25.73 29.2284 25.7732L26.7722 25.9733C26.2542 26.0148 26.2542 26.0873 26.7711 26.1328L29.7447 26.3924C30.2621 26.438 30.5704 26.3003 30.427 26.0862V26.0862ZM53.0847 25.1995C53.0241 25.0051 53.3982 24.8573 53.9185 24.8714L54.5304 24.8894C55.0496 24.9023 55.0671 25.0298 54.5671 25.1697L54.1003 25.299C53.6021 25.4389 53.1447 25.3939 53.0847 25.1995V25.1995ZM79.0113 23.8167C78.9717 23.5239 78.5189 23.3419 78.0044 23.4127L76.2679 23.6515C75.7557 23.7223 75.7557 23.8437 76.2673 23.9218L78.1501 24.2072C78.664 24.2853 79.051 24.1094 79.0113 23.8167ZM81.1802 24.8298C81.154 24.5376 81.5566 24.3466 82.0717 24.4027L82.1259 24.4089C82.6434 24.4662 82.683 24.6899 82.2139 24.9073L82.0805 24.9686C81.6114 25.1844 81.2064 25.122 81.1802 24.8298V24.8298ZM64.7797 19.9508C64.7185 19.5215 64.6026 19.4895 64.5216 19.88C64.4406 20.27 64.4959 20.9819 64.6451 21.4612L64.764 21.8433C64.9137 22.3231 65.007 22.3063 64.9703 21.8079L64.958 21.6399C64.9136 21.0755 64.8541 20.5123 64.7797 19.9508V19.9508ZM73.3847 20.2694C73.2833 20.0941 73.2151 20.3593 73.2337 20.86L73.2413 21.0976C73.26 21.5983 73.3404 21.6888 73.4231 21.2988C73.5029 20.9083 73.4866 20.4453 73.3847 20.2694ZM55.9528 20.0918C55.9318 19.662 55.8502 19.662 55.7704 20.0918C55.6894 20.5217 55.7576 21.2617 55.9201 21.7371L56.0577 22.1355C56.2214 22.6108 56.2867 22.5945 56.201 22.1012L56.1451 21.7719C56.0519 21.2153 55.9877 20.6546 55.9528 20.0918V20.0918ZM41.9385 20.4116C41.8575 20.2357 41.7235 20.2677 41.6448 20.4824C41.5638 20.697 41.6477 21.0948 41.8296 21.3679C42.0114 21.6404 42.1454 21.6101 42.1238 21.2971C42.1029 20.9858 42.0201 20.5874 41.9385 20.4116V20.4116ZM32.1553 20.1109C32.0551 19.6805 31.8733 19.7283 31.7521 20.216V20.2177C31.6303 20.7043 31.8296 21.3909 32.1926 21.7421C32.5563 22.0939 32.7375 22.0461 32.597 21.6365C32.4282 21.134 32.2808 20.6251 32.1553 20.1109V20.1109ZM14.5399 19.49C14.3983 19.3147 14.7066 19.2068 15.2246 19.2501L16.7228 19.3754C17.2408 19.4187 17.242 19.5058 16.7274 19.5704L15.7345 19.694C15.2199 19.7575 14.6821 19.6659 14.5399 19.49ZM94.7679 19.7878C94.8419 19.2922 94.9888 19.2866 95.1 19.776L95.1443 19.9811C95.2539 20.4711 95.2341 21.2685 95.1012 21.7528L94.9212 22.4035C94.7877 22.8862 94.6671 22.8732 94.6525 22.372L94.6339 21.7832C94.6187 21.2819 94.6665 20.4666 94.7405 19.9699L94.7679 19.7878V19.7878ZM88.8685 8.85041C88.8685 9.06506 88.5166 9.00831 88.0865 8.72848L87.8091 8.54699C87.3791 8.26491 87.4403 8.13005 87.9461 8.24693L87.9484 8.24749C88.4554 8.36549 88.8685 8.6352 88.8685 8.85041V8.85041ZM117.593 23.2834C117.653 23.0885 117.278 22.9412 116.758 22.9547L116.073 22.9738C115.554 22.9884 115.539 23.1104 116.038 23.2469L116.573 23.3913C117.075 23.5262 117.533 23.4773 117.593 23.2834V23.2834ZM113.914 20.27C113.772 19.9772 113.672 20.148 113.692 20.6492L113.695 20.7425C113.715 21.2426 113.83 21.4606 113.95 21.2269C114.073 20.9926 114.057 20.5627 113.914 20.27V20.27ZM126.973 24.1707C127.054 23.956 126.695 23.8139 126.178 23.8538L124.384 23.9926C123.865 24.0319 123.862 24.1257 124.376 24.2016L125.892 24.4241C126.404 24.4994 126.891 24.3853 126.973 24.1707V24.1707ZM125.134 20.3762C125.052 20.1413 124.937 20.1255 124.877 20.3402C124.816 20.5554 124.834 21.0341 124.913 21.4056C124.994 21.7759 125.11 21.7921 125.169 21.4404C125.23 21.0892 125.215 20.6105 125.134 20.3762ZM151.209 12.8219C151.027 12.7635 151.044 12.3483 151.246 11.8999C151.448 11.4509 151.597 11.4925 151.576 11.9937L151.575 12.0184C151.556 12.5191 151.391 12.8815 151.209 12.8219ZM138.851 23.674C139.033 23.4599 139.602 23.3447 140.116 23.4189L142.661 23.7869C143.175 23.8611 143.171 23.9341 142.652 23.9476L139.464 24.0375C138.945 24.0532 138.67 23.8886 138.851 23.674V23.674ZM162.977 23.674C163.2 23.3812 163.8 23.2188 164.311 23.3149L166.649 23.7498C167.158 23.8448 167.151 23.9454 166.633 23.9757L163.517 24.1516C162.996 24.183 162.755 23.9673 162.977 23.674V23.674ZM163.935 15.1623C163.834 14.8307 164.17 14.62 164.684 14.6936L166.787 14.9931C167.301 15.0667 167.303 15.201 166.791 15.2915L165.05 15.6C164.539 15.6905 164.038 15.4938 163.935 15.1623V15.1623ZM161.469 5.30369C161.308 5.16658 161.159 4.64514 161.141 4.14504L161.137 4.05008C161.12 3.54943 161.212 3.53706 161.345 4.02086L161.522 4.67098C161.655 5.15534 161.631 5.44079 161.469 5.30369ZM138.08 17.1851L136.751 16.6715C136.268 16.4855 136.296 16.3715 136.813 16.4181L138.226 16.5457L138.08 17.1851ZM87.5819 21.2971C87.6815 21.0252 87.6815 20.5942 87.5819 20.3396C87.4817 20.0868 86.9735 19.8806 86.4543 19.8806H85.9142C85.3944 19.8806 84.821 20.1194 84.6392 20.4127C84.4568 20.7054 84.7173 21.0572 85.2172 21.1943L86.4916 21.5449C86.9916 21.6815 87.4817 21.5696 87.5819 21.2971" fill="#0E131E"/>
<path d="M86.6989 20.588C86.3534 20.2379 86.3709 19.9496 86.7357 19.9496C87.0998 19.9496 87.5468 20.1255 87.7286 20.3402C87.9098 20.5554 87.8335 21.0785 87.5579 21.5033L87.4559 21.6612C87.1791 22.0849 87.0381 22.1619 87.1383 21.8298C87.242 21.4971 87.0427 20.9397 86.6989 20.588V20.588ZM53.4138 4.62939C53.4546 4.35687 53.8992 4.23213 54.4026 4.35462L54.6293 4.40912C55.134 4.53162 55.1316 4.72379 54.6258 4.83786L54.2605 4.91989C53.7547 5.03396 53.373 4.9036 53.4138 4.62939V4.62939ZM29.6181 8.49471C29.5161 8.67003 29.022 8.71723 28.5156 8.60035L28.219 8.53124C27.715 8.41436 27.7243 8.29411 28.2447 8.26377L28.8571 8.22893C29.3763 8.19972 29.7195 8.31884 29.6181 8.49471V8.49471ZM10.4562 16.3327C10.5383 16.0978 10.1858 15.9849 9.67651 16.0815L8.88576 16.2299C8.37589 16.3259 8.37822 16.4681 8.89101 16.5451L9.37583 16.6187C9.88803 16.6957 10.3752 16.5676 10.4562 16.3327Z" fill="#0E131E"/>
<path d="M11.9276 23.8168C11.7662 23.6415 11.7528 23.1032 11.9002 22.6239L12.103 21.9591C12.2493 21.4781 12.3483 21.4944 12.3244 21.9945L12.265 23.2245C12.2411 23.7269 12.0896 23.991 11.9276 23.8168V23.8168ZM30.3175 26.1565C30.1555 26.0588 30.1555 25.6289 30.3175 25.1991C30.4795 24.7698 30.6117 24.8293 30.6117 25.3305V25.4227C30.6117 25.9239 30.4795 26.2543 30.3175 26.1565ZM46.905 15.4826C46.8852 15.1702 47.0233 15.2955 47.2138 15.763L47.3304 16.053C47.5215 16.5194 47.5116 16.7093 47.3088 16.4755C47.1066 16.2412 46.9248 15.7945 46.905 15.4826V15.4826ZM139.073 23.9584C139.255 23.8213 139.287 23.3156 139.144 22.834L138.927 22.1024C138.784 21.6209 138.677 21.6366 138.691 22.1373L138.721 23.2959C138.732 23.7965 138.891 24.0949 139.073 23.9584ZM163.347 23.8157C163.61 23.6785 163.648 23.1947 163.429 22.7407L162.455 20.7066C162.237 20.2504 162.137 20.2807 162.232 20.7746L162.696 23.1683C162.791 23.6617 163.084 23.9528 163.347 23.8157V23.8157ZM164.376 15.1275C164.275 14.932 164.004 15.1405 163.775 15.59L162.77 17.5718C162.54 18.0219 162.604 18.059 162.911 17.6555L164.002 16.2159C164.31 15.813 164.478 15.3236 164.376 15.1275Z" fill="#282729"/>
<path d="M148.597 5.41011L148.637 4.26496C148.654 3.76318 148.776 3.75082 148.907 4.23518L149.258 5.55171" fill="#0E131E"/>
<path d="M8.43491 24.3123C7.9699 24.1757 8.00312 24.0959 8.50833 24.1364C9.06142 24.1798 9.61309 24.2387 10.1627 24.3128C10.5665 24.3713 10.5338 24.4516 10.0892 24.4893C9.64404 24.5286 8.89991 24.4488 8.43491 24.3123V24.3123ZM31.7207 21.8006C31.3542 21.4466 31.3006 21.4898 31.6018 21.8972L31.9748 22.4007C32.2766 22.8086 32.7562 23.2851 33.04 23.4615C33.3226 23.6369 33.3069 23.4941 33.0038 23.1424C32.6134 22.7006 32.2062 22.2729 31.7831 21.8601L31.7207 21.8006V21.8006ZM41.2038 20.8021C41.0814 20.8021 41.1484 21.1364 41.3506 21.5471C41.5528 21.9568 41.6519 21.9568 41.5715 21.5471C41.4905 21.1358 41.325 20.8021 41.2038 20.8021ZM54.7408 25.3417C54.3358 25.3023 54.4238 25.1978 54.9348 25.1068L55.4995 25.0085C56.0105 24.9186 56.2145 24.9736 55.9511 25.1298C55.6906 25.2855 55.1446 25.3804 54.7408 25.3417V25.3417ZM64.1906 21.5466C64.0083 21.2932 63.9418 21.4522 64.0426 21.9006C64.144 22.349 64.4092 23.0362 64.6318 23.4256C64.8526 23.8167 64.9394 23.7363 64.8217 23.2491L64.7366 22.8963C64.6178 22.4068 64.373 21.7994 64.1906 21.5466V21.5466ZM95.4538 22.3259C95.3926 22.0332 95.2423 22.0809 95.1222 22.4316C95.001 22.7828 94.9014 23.452 94.9014 23.9217C94.9014 24.3892 95.036 24.3836 95.2015 23.9094L95.2656 23.7223C95.4287 23.2475 95.5144 22.6187 95.4538 22.3259V22.3259ZM85.0366 20.3728C84.9341 20.0738 84.6992 20.125 84.5145 20.4857C84.3298 20.8464 84.5629 21.3207 85.029 21.5404L85.0524 21.5499C85.5174 21.7685 85.7487 21.7157 85.5622 21.4314C85.3775 21.1487 85.1392 20.6723 85.0366 20.3728V20.3728ZM102.513 25.4827C102.049 25.3664 102.093 25.2703 102.612 25.2703H102.783C103.302 25.2703 104.108 25.3979 104.574 25.5541C105.039 25.7103 104.997 25.8092 104.477 25.7732L104.303 25.7614C103.785 25.7249 102.98 25.6001 102.513 25.4827ZM114.32 21.5466C114.282 21.3707 114.131 21.5308 113.989 21.9006C113.846 22.2709 113.88 22.4153 114.063 22.2203C114.244 22.0248 114.362 21.7208 114.32 21.5466V21.5466ZM125.677 21.1594C125.637 20.9852 125.487 21.1443 125.346 21.5151C125.204 21.8848 125.238 22.0304 125.42 21.8337C125.602 21.6382 125.719 21.3353 125.677 21.1594ZM123.855 24.4494C123.344 24.355 123.351 24.2375 123.867 24.1886L124.267 24.1516C124.784 24.1038 125.422 24.1915 125.687 24.3488C125.949 24.5044 125.867 24.6325 125.503 24.6325C125.138 24.6325 124.423 24.555 123.912 24.46L123.855 24.4494ZM140.545 24.4196C140.079 24.4578 140.079 24.3786 140.545 24.242C141.01 24.1049 141.815 24.0279 142.331 24.0706L143.024 24.1291C143.54 24.1712 143.54 24.2308 143.021 24.2589L142.332 24.296C141.815 24.3257 141.009 24.3808 140.545 24.4196Z" fill="#595558"/>
<path d="M151.318 12.9643C151.076 13.0627 150.714 13.5201 150.514 13.9831L150.504 14.0022C150.305 14.4652 150.398 14.5174 150.711 14.1179L151.186 13.5127C151.503 13.1127 151.562 12.866 151.318 12.9643" fill="#282729"/>
<path d="M169.599 5.1976C169.376 5.1976 169.153 4.7891 169.102 4.29069L169.064 3.90579C169.014 3.4057 169.149 3.37198 169.363 3.82825L169.617 4.36711C169.829 4.82394 169.822 5.1976 169.599 5.1976ZM100.087 7.2182C100.068 6.96478 100.476 6.77149 100.995 6.78835L101.311 6.7979C101.831 6.81532 101.862 6.98501 101.383 7.17662L100.996 7.32946C100.516 7.52163 100.107 7.47106 100.087 7.2182V7.2182ZM74.2312 8.14028C74.0273 8.04251 73.916 8.36898 73.9836 8.8657L74.0354 9.25959C74.103 9.75631 74.2522 9.76362 74.3705 9.27532L74.3856 9.20621C74.5039 8.71792 74.4334 8.23862 74.2312 8.14028V8.14028ZM51.0952 15.0567C51.0346 14.8618 51.4104 14.7027 51.9302 14.7027H53.9406C54.4598 14.7027 54.4679 14.7831 53.9586 14.8803L52.133 15.2315C51.6237 15.3298 51.1552 15.2517 51.0952 15.0567V15.0567ZM10.0337 18.9569C10.0646 18.8108 9.66426 18.69 9.1439 18.69H8.66141C8.14047 18.69 8.12881 18.7878 8.63344 18.9069L9.06057 19.0075C9.56462 19.1272 10.0022 19.103 10.0337 18.9569" fill="#0E131E"/>
<path d="M2.72008 20.579C2.2003 20.5852 1.85824 20.6689 1.9608 20.7661C2.06278 20.8645 2.5709 20.9437 3.0901 20.9437H6.9395C7.45753 20.9437 7.96624 20.8482 8.06763 20.7307C8.16903 20.6133 7.82523 20.5228 7.30603 20.5285L2.72008 20.579V20.579ZM20.1554 20.579C19.6345 20.5852 19.2919 20.6689 19.3944 20.7661C19.4952 20.8645 20.0022 20.9437 20.5214 20.9437H24.3708C24.89 20.9437 25.3981 20.8482 25.5001 20.7307C25.6015 20.6133 25.2577 20.5228 24.7391 20.5285L20.1554 20.579V20.579ZM29.9572 20.5054C29.4375 20.5206 29.0406 20.615 29.0733 20.7128C29.1082 20.8111 29.561 20.8903 30.0808 20.8903H30.1472C30.667 20.8903 31.1203 20.7942 31.1559 20.6774C31.1897 20.5594 30.7934 20.4779 30.2737 20.4936L29.9572 20.5054V20.5054ZM12.4677 12.2595C11.9485 12.2764 11.5517 12.3702 11.5861 12.4674C11.6222 12.5652 12.075 12.6455 12.5941 12.6455H12.6594C13.1786 12.6455 13.6314 12.5495 13.6675 12.4326C13.7019 12.3146 13.3051 12.2325 12.7859 12.2488L12.4677 12.2595V12.2595ZM19.6945 12.2595C19.1759 12.2764 18.7796 12.3702 18.8134 12.4674C18.8496 12.5652 19.3018 12.6455 19.8204 12.6455H19.8862C20.406 12.6455 20.8588 12.5495 20.8937 12.4326C20.9293 12.3146 20.5313 12.2325 20.0115 12.2488L19.6945 12.2595V12.2595ZM5.23915 13.3732C4.72053 13.3912 4.32195 13.4856 4.35284 13.5845C4.38256 13.6817 4.80561 13.7609 5.28926 13.7609C5.77291 13.7609 6.19421 13.6648 6.22451 13.5485C6.25598 13.4316 5.85682 13.3507 5.33821 13.3698L5.23915 13.3732ZM13.9023 16.2097C13.382 16.2192 13.0102 16.3058 13.0737 16.4041C13.139 16.5024 13.6168 16.5805 14.1354 16.5805H15.8626C16.3829 16.5805 16.8602 16.4856 16.9237 16.3693C16.9884 16.2524 16.6155 16.1642 16.0963 16.1726L13.9023 16.2097V16.2097ZM9.92999 4.0816C9.40962 4.09059 9.03785 4.17768 9.10253 4.27489C9.16605 4.3721 9.64387 4.45189 10.1625 4.45189H11.892C12.4123 4.45189 12.8896 4.35637 12.9531 4.23949C13.016 4.12205 12.6431 4.03327 12.1239 4.0417L9.92999 4.0816V4.0816ZM39.9962 20.5054C39.4776 20.5206 39.0802 20.615 39.1152 20.7128C39.1507 20.8111 39.6029 20.8903 40.1221 20.8903H40.1868C40.706 20.8903 41.1605 20.7942 41.1955 20.6774C41.2304 20.5594 40.8336 20.4779 40.3126 20.4936L39.9962 20.5054V20.5054ZM57.1525 20.5026C56.6327 20.52 56.2335 20.615 56.2656 20.7133C56.2965 20.8117 56.7183 20.8914 57.202 20.8914C57.6874 20.8914 58.1075 20.7954 58.1378 20.6774C58.1693 20.5605 57.7678 20.4801 57.2515 20.4981L57.1525 20.5026V20.5026ZM43.1965 20.5178C42.6773 20.5296 42.2968 20.6161 42.3533 20.7139C42.4087 20.8122 42.8795 20.8903 43.3987 20.8903H44.69C45.2098 20.8903 45.68 20.7942 45.736 20.6779C45.7913 20.561 45.412 20.4723 44.8922 20.4835L43.1965 20.5178ZM52.299 20.5189C51.7787 20.529 51.4057 20.6156 51.4681 20.7139C51.531 20.8122 52.0071 20.8909 52.5263 20.8909H54.1538C54.6742 20.8909 55.1497 20.7948 55.2132 20.6779C55.275 20.561 54.9009 20.4717 54.3817 20.4824L52.299 20.5189ZM62.3409 20.5133C61.8217 20.5257 61.4337 20.6161 61.4779 20.7133C61.524 20.8117 61.9861 20.8898 62.5053 20.8898H63.2086C63.7278 20.8898 64.1905 20.7937 64.2371 20.6768C64.2831 20.5599 63.8956 20.474 63.3753 20.4869L62.3409 20.5133ZM82.2546 20.5133C81.7354 20.5257 81.3473 20.6161 81.3939 20.7133C81.4405 20.8117 81.9032 20.8898 82.423 20.8898H83.1234C83.642 20.8898 84.1058 20.7937 84.1525 20.6768C84.1991 20.5599 83.8116 20.474 83.2924 20.4869L82.2546 20.5133V20.5133ZM96.4326 20.5099C95.9134 20.5234 95.5212 20.6156 95.562 20.7128C95.6034 20.8111 96.0602 20.8903 96.5817 20.8903H96.9896C97.5094 20.8903 97.968 20.7942 98.0088 20.6774C98.0508 20.5599 97.6592 20.4756 97.1394 20.4903L96.4326 20.5099ZM103.496 20.524C102.976 20.5313 102.622 20.6156 102.709 20.7133C102.796 20.8117 103.293 20.8898 103.812 20.8898H106.898C107.417 20.8898 107.913 20.7937 108.002 20.6768C108.09 20.5599 107.737 20.4689 107.216 20.4756L103.496 20.524V20.524ZM112.212 20.5071C111.692 20.5223 111.298 20.6156 111.334 20.7139C111.37 20.8111 111.825 20.8909 112.342 20.8909H112.49C113.01 20.8909 113.464 20.7948 113.5 20.6779C113.536 20.5605 113.142 20.4779 112.62 20.4931L112.212 20.5071ZM115.358 20.5178C114.836 20.5296 114.459 20.6161 114.515 20.7139C114.571 20.8122 115.043 20.8903 115.562 20.8903H116.885C117.404 20.8903 117.876 20.7942 117.934 20.6779C117.988 20.561 117.61 20.4723 117.09 20.4835L115.358 20.5178V20.5178ZM122.307 20.5144C121.787 20.5262 121.402 20.6156 121.45 20.7133C121.499 20.8117 121.964 20.8909 122.483 20.8909H123.314C123.833 20.8909 124.298 20.7948 124.346 20.6779C124.394 20.561 124.009 20.474 123.489 20.4863L122.307 20.5144V20.5144ZM126.446 20.5099C125.925 20.5245 125.533 20.6161 125.572 20.7139C125.611 20.8117 126.069 20.8909 126.59 20.8909H126.934C127.453 20.8909 127.911 20.7948 127.949 20.6779C127.988 20.5605 127.595 20.4768 127.076 20.4914L126.446 20.5099ZM132.295 20.5262C131.775 20.5318 131.437 20.6156 131.546 20.7133C131.654 20.8117 132.167 20.8909 132.686 20.8909H136.944C137.464 20.8909 137.977 20.7948 138.085 20.6774C138.193 20.5605 137.856 20.4689 137.338 20.4745L132.295 20.5262ZM142.223 20.5262C141.703 20.5318 141.366 20.6156 141.475 20.7133C141.582 20.8117 142.096 20.8909 142.616 20.8909H146.873C147.393 20.8909 147.907 20.7948 148.015 20.6774C148.125 20.5605 147.788 20.4689 147.269 20.4745L142.223 20.5262V20.5262ZM167.325 20.5262C166.806 20.5318 166.469 20.6156 166.58 20.7133C166.687 20.8117 167.2 20.8909 167.722 20.8909H171.974C172.494 20.8909 173.008 20.7948 173.116 20.6774C173.225 20.5605 172.888 20.4689 172.37 20.4745L167.325 20.5262V20.5262ZM158.112 4.39851C157.592 4.40862 157.217 4.49515 157.278 4.59349C157.338 4.69126 157.814 4.76992 158.334 4.76992H159.899C160.419 4.76992 160.895 4.6744 160.956 4.55696C161.016 4.44009 160.641 4.35187 160.121 4.36142L158.112 4.39851ZM150.276 4.40132C149.758 4.40975 149.391 4.49515 149.46 4.59349C149.531 4.69126 150.013 4.76992 150.534 4.76992H152.586C153.107 4.76992 153.588 4.6744 153.658 4.55753C153.727 4.44009 153.36 4.35187 152.84 4.35917L150.276 4.40132V4.40132ZM146.303 4.39401C145.784 4.40581 145.399 4.49628 145.449 4.59293C145.496 4.6907 145.96 4.76992 146.482 4.76992H147.364C147.884 4.76992 148.348 4.6744 148.398 4.55696C148.447 4.43953 148.064 4.35412 147.542 4.36592L146.303 4.39401ZM147.63 12.2207C147.11 12.2297 146.738 12.3168 146.801 12.4146C146.862 12.5124 147.339 12.5905 147.858 12.5905H149.521C150.04 12.5905 150.516 12.4955 150.579 12.3792C150.643 12.2618 150.269 12.1741 149.748 12.1825L147.63 12.2207V12.2207ZM123.412 3.86414C122.891 3.87594 122.506 3.96528 122.556 4.06305C122.604 4.1597 123.068 4.23949 123.589 4.23949H124.47C124.99 4.23949 125.454 4.14397 125.503 4.02709C125.551 3.91022 125.166 3.82368 124.646 3.83661L123.412 3.86414ZM129.037 3.86414C128.517 3.87594 128.132 3.96528 128.181 4.06305C128.229 4.1597 128.696 4.23949 129.214 4.23949H130.099C130.618 4.23949 131.082 4.14397 131.132 4.02709C131.179 3.91022 130.795 3.82368 130.274 3.83661L129.037 3.86414ZM125.435 7.30747C125.015 7.32545 124.692 7.4221 124.717 7.51987C124.741 7.6182 125.066 7.69856 125.437 7.69856C125.808 7.69856 126.132 7.60191 126.155 7.48503C126.178 7.36928 125.854 7.28893 125.435 7.30747V7.30747ZM127.439 6.19041C126.919 6.20952 126.52 6.3056 126.548 6.40337C126.578 6.50114 126.984 6.5815 127.451 6.5815C127.918 6.5815 128.323 6.48541 128.352 6.36797C128.382 6.24997 127.98 6.16962 127.461 6.18985L127.439 6.19041V6.19041ZM102.391 6.40337C101.872 6.42192 101.471 6.51744 101.5 6.61577C101.529 6.71354 101.935 6.7939 102.402 6.7939C102.87 6.7939 103.275 6.69781 103.308 6.58093C103.339 6.4635 102.937 6.38258 102.419 6.40169L102.391 6.40337ZM108.681 12.0477C108.159 12.0634 107.763 12.1561 107.802 12.2545C107.838 12.3517 108.294 12.432 108.813 12.432H108.975C109.495 12.432 109.95 12.3371 109.985 12.2202C110.021 12.1022 109.627 12.0196 109.107 12.0342L108.681 12.0477ZM104.267 14.0806C103.748 14.0924 103.368 14.179 103.425 14.2762C103.481 14.3745 103.951 14.4532 104.472 14.4532H105.761C106.28 14.4532 106.751 14.3571 106.807 14.2402C106.863 14.1222 106.483 14.0351 105.965 14.0464L104.267 14.0806ZM166.716 14.506C166.197 14.5178 165.819 14.6043 165.876 14.7027C165.932 14.7999 166.404 14.8791 166.923 14.8791H168.21C168.73 14.8791 169.201 14.783 169.258 14.6656C169.314 14.5487 168.935 14.4622 168.417 14.4723L166.716 14.506V14.506ZM62.8386 16.0962C62.3194 16.1097 61.9278 16.2018 61.9692 16.2985C62.0117 16.3951 62.4709 16.4743 62.9901 16.4743H63.4959C64.0151 16.4743 64.476 16.3788 64.5185 16.2619C64.5611 16.1451 64.1718 16.0613 63.6515 16.0743L62.8386 16.0962V16.0962ZM54.0093 14.3931C53.4901 14.4065 53.0997 14.4987 53.1417 14.5953C53.1836 14.692 53.6422 14.7718 54.1614 14.7718H54.6684C55.1887 14.7718 55.6491 14.6763 55.6916 14.5599C55.7341 14.4425 55.3437 14.3582 54.8239 14.3717L54.0093 14.3931ZM41.4291 14.2329C40.9093 14.2464 40.5195 14.3385 40.562 14.4358C40.6057 14.5335 41.0661 14.6133 41.5853 14.6133H42.0911C42.6103 14.6133 43.0706 14.5172 43.1132 14.3992C43.1563 14.2824 42.7653 14.1975 42.2455 14.211L41.4291 14.2329ZM22.3995 7.74407C21.8803 7.75362 21.5015 7.83903 21.5586 7.9368C21.6169 8.03514 22.0883 8.11605 22.6087 8.1183L23.9943 8.12335C24.5135 8.1256 24.9873 8.03064 25.0444 7.91377C25.1032 7.79633 24.7262 7.70755 24.2065 7.71541L22.3995 7.74407V7.74407ZM58.1192 4.66035C57.6029 4.60529 57.202 4.64462 57.2305 4.74689C57.2585 4.85028 57.7031 4.98907 58.2177 5.05593L58.7205 5.12111C59.2357 5.1891 59.7047 5.15427 59.7624 5.04413C59.8201 4.934 59.446 4.79914 58.9286 4.74464L58.1192 4.66035ZM112.267 15.4034C111.747 15.4163 111.356 15.5079 111.399 15.6051C111.441 15.7023 111.902 15.7815 112.42 15.7815H112.926C113.445 15.7815 113.905 15.686 113.948 15.5691C113.989 15.4522 113.6 15.368 113.079 15.3814L112.267 15.4034V15.4034ZM128.155 13.9149C127.636 13.9284 127.245 14.0194 127.288 14.1172C127.331 14.2138 127.791 14.293 128.31 14.293H128.816C129.337 14.293 129.795 14.1969 129.838 14.0801C129.879 13.9621 129.49 13.8795 128.971 13.8924L128.155 13.9149V13.9149ZM89.9761 4.24792C89.4569 4.25298 89.1393 4.3367 89.2728 4.43503C89.4062 4.53224 89.9388 4.61203 90.458 4.61203H96.0526C96.5718 4.61203 97.1044 4.51707 97.2373 4.39851C97.3684 4.28163 97.052 4.18892 96.5316 4.19398L89.9761 4.24792V4.24792ZM71.056 4.30242C70.5374 4.30692 70.2227 4.39008 70.3602 4.48729C70.4972 4.58562 71.035 4.66429 71.5536 4.66429H77.3878C77.9069 4.66429 78.4436 4.56933 78.5806 4.45133C78.7175 4.33445 78.4028 4.2423 77.8836 4.24679L71.056 4.30242V4.30242ZM70.0642 12.0623C69.5444 12.0696 69.1797 12.1561 69.2537 12.2539C69.3271 12.3522 69.8131 12.4326 70.3328 12.4326H72.6497C73.1683 12.4326 73.6543 12.3371 73.7277 12.2202C73.8012 12.1033 73.4364 12.014 72.9172 12.0213L70.0642 12.0623V12.0623ZM75.1373 12.0617C74.6181 12.069 74.2498 12.1561 74.3204 12.2539C74.3909 12.3522 74.8728 12.4326 75.3925 12.4326H77.4635C77.9821 12.4326 78.4646 12.3376 78.5351 12.2207C78.6056 12.1027 78.2373 12.0134 77.7182 12.0218L75.1373 12.0617V12.0617ZM86.0078 19.4934C85.488 19.5103 85.0912 19.6053 85.1244 19.7019C85.1576 19.7991 85.6098 19.8795 86.1296 19.8795H86.1454C86.6645 19.8795 87.1173 19.7839 87.1523 19.6665C87.1878 19.5491 86.7904 19.4676 86.2706 19.4844L86.0078 19.4934V19.4934ZM84.5143 7.02315C83.998 6.96528 83.6041 7.00461 83.6403 7.10631C83.6764 7.21195 84.1262 7.35186 84.6408 7.42042L85.59 7.54797C86.1051 7.6154 86.5801 7.58281 86.6465 7.47267C86.7129 7.36254 86.3458 7.22656 85.8289 7.16868L84.5143 7.02315V7.02315ZM131.956 15.4298C131.44 15.3719 131.047 15.4095 131.085 15.5118C131.118 15.6158 131.572 15.7562 132.086 15.8253L133.032 15.9518C133.548 16.0198 134.022 15.9872 134.089 15.8776C134.155 15.7686 133.787 15.632 133.272 15.5753L131.956 15.4298V15.4298ZM130.238 7.30747C129.849 7.32545 129.548 7.4221 129.57 7.51987C129.592 7.6182 129.892 7.69856 130.236 7.69856C130.582 7.69856 130.882 7.60191 130.904 7.48503C130.926 7.36928 130.627 7.28893 130.238 7.30747V7.30747ZM152.65 12.2219C152.131 12.2309 151.762 12.3163 151.831 12.414C151.902 12.5118 152.383 12.5916 152.903 12.5916H154.959C155.477 12.5916 155.961 12.4955 156.03 12.3786C156.098 12.2618 155.73 12.1741 155.21 12.1808L152.65 12.2219V12.2219ZM170.854 4.39514C170.335 4.40637 169.95 4.49572 170.001 4.59349C170.051 4.69126 170.518 4.76992 171.037 4.76992H171.981C172.503 4.76992 172.969 4.67496 173.018 4.55696C173.069 4.44009 172.686 4.35468 172.165 4.36536L170.854 4.39514ZM89.2069 20.5251C88.6877 20.5318 88.341 20.6161 88.4354 20.7139C88.5321 20.8117 89.035 20.8903 89.5542 20.8903H93.0936C93.6128 20.8903 94.1157 20.7948 94.2124 20.6779C94.308 20.561 93.9607 20.47 93.4421 20.4768L89.2069 20.5251V20.5251ZM66.0365 20.5273C65.5167 20.5324 65.1951 20.615 65.3204 20.7128C65.4462 20.8111 65.973 20.8903 66.4934 20.8903H71.7424C72.2622 20.8903 72.7907 20.7942 72.9166 20.6762C73.0425 20.5594 72.7196 20.4672 72.2004 20.4723L66.0365 20.5273ZM74.6432 20.5206C74.1246 20.5301 73.7557 20.6161 73.8245 20.7139C73.8938 20.8117 74.3751 20.8903 74.8943 20.8903H76.9158C77.435 20.8903 77.9157 20.7942 77.9862 20.6774C78.0538 20.5605 77.6849 20.4717 77.1657 20.479L74.6432 20.5206ZM33.6919 20.5678C33.1727 20.5796 32.7852 20.6695 32.8341 20.7667C32.8819 20.865 33.3451 20.9437 33.8661 20.9437H34.7157C35.2349 20.9437 35.6993 20.8482 35.7471 20.7307C35.796 20.6133 35.4109 20.5285 34.8917 20.5397L33.6919 20.5678V20.5678Z" fill="#E1DCD7"/>
</g>
<defs>
<clipPath id="clip0_3215_76">
<rect width="175" height="28.0125" rx="4" fill="white"/>
</clipPath>
</defs>
</svg>
