<svg width="40" height="40" viewBox="0 0 40 40" fill="none" xmlns="http://www.w3.org/2000/svg">
<g clip-path="url(#clip0_3215_15)">
<path d="M0.8225 25.8325C2.07698 29.9336 4.61496 33.5236 8.06283 36.0741C11.5107 38.6246 15.6863 40.0007 19.975 40C31.035 40 40 31.045 40 20C40 8.955 31.035 1.49946e-06 19.9775 1.49946e-06C14.9007 -0.00196246 10.0128 1.9254 6.30364 5.39182C2.59446 8.85824 0.34116 13.6047 0 18.67L0.0075 18.685L10.7675 23.1075C11.738 22.465 12.8873 22.1472 14.05 22.2L18.95 15.09L18.9475 14.99C18.9495 12.9734 19.7513 11.0399 21.177 9.61376C22.6027 8.18758 24.5359 7.38515 26.5525 7.3825C28.5691 7.38515 30.5023 8.18758 31.928 9.61376C33.3537 11.0399 34.1555 12.9734 34.1575 14.99C34.1567 16.0033 33.9538 17.0063 33.5606 17.9402C33.1673 18.8741 32.5917 19.7202 31.8674 20.4289C31.1432 21.1376 30.2848 21.6946 29.3425 22.0674C28.4003 22.4402 27.3931 22.6213 26.38 22.6L19.37 27.6C19.3938 28.5262 19.1856 29.4436 18.7645 30.2688C18.3434 31.094 17.7226 31.8009 16.9587 32.3251C16.1948 32.8493 15.3119 33.1742 14.3904 33.2702C13.469 33.3662 12.5381 33.2304 11.6825 32.875C10.8613 32.5328 10.1346 31.998 9.56366 31.3157C8.99276 30.6334 8.59449 29.8237 8.4025 28.955L0.825 25.8325H0.8225Z" fill="white"/>
<path d="M12.1701 31.7075C13.2117 32.1051 14.3672 32.0813 15.3915 31.6412C16.4159 31.2011 17.2285 30.3793 17.6571 29.3501C18.0857 28.3209 18.0965 27.1652 17.6873 26.1282C17.2781 25.0911 16.481 24.2542 15.4651 23.795C14.4578 23.3747 13.3277 23.3568 12.3076 23.745L14.8651 24.805C15.2476 24.9642 15.5949 25.1972 15.8874 25.4907C16.1798 25.7842 16.4115 26.1324 16.5694 26.5154C16.7273 26.8984 16.8081 27.3088 16.8074 27.7231C16.8066 28.1374 16.7243 28.5475 16.5651 28.93C16.4059 29.3125 16.1729 29.6598 15.8794 29.9523C15.5859 30.2447 15.2377 30.4764 14.8547 30.6343C14.4716 30.7922 14.0612 30.873 13.6469 30.8723C13.2327 30.8715 12.8226 30.7892 12.4401 30.63L9.96509 29.605C10.4155 30.5533 11.2009 31.3014 12.1701 31.705V31.7075ZM21.4851 14.99C21.4857 16.3342 22.0197 17.6233 22.9698 18.5743C23.9198 19.5253 25.2083 20.0605 26.5526 20.0625C27.8968 20.0605 29.1854 19.5253 30.1354 18.5743C31.0855 17.6233 31.6194 16.3342 31.6201 14.99C31.6181 13.6466 31.0836 12.3588 30.1337 11.4089C29.1837 10.459 27.896 9.92447 26.5526 9.92249C25.2092 9.92447 23.9214 10.459 22.9715 11.4089C22.0216 12.3588 21.4871 13.6466 21.4851 14.99V14.99ZM26.5601 11.1725C27.0604 11.1728 27.5558 11.2717 28.0179 11.4635C28.48 11.6552 28.8999 11.9362 29.2534 12.2902C29.607 12.6442 29.8874 13.0644 30.0785 13.5268C30.2697 13.9891 30.3679 14.4846 30.3676 14.985C30.3673 15.4853 30.2684 15.9807 30.0766 16.4428C29.8848 16.9049 29.6039 17.3248 29.2499 17.6783C28.8959 18.0319 28.4757 18.3123 28.0133 18.5034C27.5509 18.6946 27.0554 18.7928 26.5551 18.7925C25.5446 18.7918 24.5758 18.3898 23.8617 17.6748C23.1477 16.9598 22.7469 15.9905 22.7476 14.98C22.7483 13.9695 23.1503 13.0007 23.8653 12.2866C24.5803 11.5726 25.5496 11.1718 26.5601 11.1725V11.1725Z" fill="white"/>
</g>
<defs>
<clipPath id="clip0_3215_15">
<rect width="40" height="40" fill="white"/>
</clipPath>
</defs>
</svg>
