<svg width="140" height="40" viewBox="0 0 140 40" fill="none" xmlns="http://www.w3.org/2000/svg">
<g clip-path="url(#clip0_3215_90)">
<path d="M3.16943 17.2751L104.039 17.2704L101.071 0.0700211H0.0698242L3.16943 17.2751Z" fill="#231F20"/>
<path d="M50.7234 3.55694H57.5019V4.47396H51.7829V6.92762H57.2851V7.8369H51.7829V11.1874H50.7234V3.55694Z" fill="white"/>
<path d="M50.7234 3.55694H57.5019V4.47396H51.7829V6.92762H57.2851V7.8369H51.7829V11.1874H50.7234V3.55694Z" stroke="white" stroke-width="2" stroke-miterlimit="10"/>
<path d="M59.2989 7.40301C59.2989 7.99784 59.4523 8.76461 59.9696 9.34859C60.6837 10.182 61.7928 10.4499 62.8973 10.4499C65.7212 10.4499 66.3981 8.66857 66.3981 7.37048C66.3981 5.36139 64.7902 4.24764 62.7037 4.30186C61.1144 4.34368 59.2989 5.14298 59.2989 7.40301ZM67.4917 7.47891C67.4917 10.0844 65.3525 11.3918 62.8973 11.3918C61.7835 11.3918 60.6605 11.1873 59.7667 10.5506C59.0185 10.0286 58.2192 9.07906 58.2192 7.46807C58.2192 4.64729 60.5428 3.3709 62.8214 3.3709C65.4935 3.38329 67.4917 4.9509 67.4917 7.47891" fill="white"/>
<path d="M59.2989 7.40301C59.2989 7.99784 59.4523 8.76461 59.9696 9.34859C60.6837 10.182 61.7928 10.4499 62.8973 10.4499C65.7212 10.4499 66.3981 8.66857 66.3981 7.37048C66.3981 5.36139 64.7902 4.24764 62.7037 4.30186C61.1144 4.34368 59.2989 5.14298 59.2989 7.40301ZM67.4917 7.47891C67.4917 10.0844 65.3525 11.3918 62.8973 11.3918C61.7835 11.3918 60.6605 11.1873 59.7667 10.5506C59.0185 10.0286 58.2192 9.07906 58.2192 7.46807C58.2192 4.64729 60.5428 3.3709 62.8214 3.3709C65.4935 3.38329 67.4917 4.9509 67.4917 7.47891V7.47891Z" stroke="white" stroke-width="2" stroke-miterlimit="10"/>
<path d="M69.6202 4.47439V7.24095H73.3936C73.9853 7.24095 74.7459 7.23165 75.175 6.65696C75.3717 6.40912 75.4337 6.1179 75.4337 5.84682C75.4337 5.55561 75.3609 5.26439 75.2075 5.03513C74.8636 4.48368 74.3091 4.48368 73.8119 4.47439H69.6202ZM68.5498 3.55736H73.7375C74.4098 3.56511 75.2168 3.57595 75.8798 4.17233C76.1261 4.38609 76.5583 4.88643 76.5583 5.80345C76.5583 7.6313 75.0108 7.87915 74.5027 7.96434L77.3173 11.1879H75.9015L73.3177 8.13783H69.631V11.1879H68.5498V3.55736V3.55736Z" fill="white"/>
<path d="M69.6202 4.47439V7.24095H73.3936C73.9853 7.24095 74.7459 7.23165 75.175 6.65696C75.3717 6.40912 75.4337 6.1179 75.4337 5.84682C75.4337 5.55561 75.3609 5.26439 75.2075 5.03513C74.8636 4.48368 74.3091 4.48368 73.8119 4.47439H69.6202ZM68.5498 3.55736H73.7375C74.4098 3.56511 75.2168 3.57595 75.8798 4.17233C76.1261 4.38609 76.5583 4.88643 76.5583 5.80345C76.5583 7.6313 75.0108 7.87915 74.5027 7.96434L77.3173 11.1879H75.9015L73.3177 8.13783H69.631V11.1879H68.5498V3.55736V3.55736Z" stroke="white" stroke-width="2" stroke-miterlimit="10"/>
<path d="M78.5482 3.55694H85.6071V4.46312L79.6186 10.2363H85.7155V11.1874H78.0928V10.2906L84.0689 4.49565H78.5482V3.55694Z" fill="white"/>
<path d="M78.5482 3.55694H85.6071V4.46312L79.6186 10.2363H85.7155V11.1874H78.0928V10.2906L84.0689 4.49565H78.5482V3.55694Z" stroke="white" stroke-width="2" stroke-miterlimit="10"/>
<path d="M91.0722 5.20884C91.021 5.08027 90.9591 4.95015 90.9018 4.82158C90.8677 4.72399 90.8382 4.62486 90.815 4.52882C90.7809 4.62486 90.75 4.73329 90.7081 4.84172C90.6524 4.98268 90.5873 5.11125 90.5238 5.25376L88.9128 8.41842H92.6847L91.0722 5.20884ZM90.2636 3.54518H91.4098L95.3227 11.1881H94.0773L93.1509 9.30446H88.4589L87.5295 11.1881H86.3213L90.2636 3.54518V3.54518Z" fill="white"/>
<path d="M91.0722 5.20884C91.021 5.08027 90.9591 4.95015 90.9018 4.82158C90.8677 4.72399 90.8382 4.62486 90.815 4.52882C90.7809 4.62486 90.75 4.73329 90.7081 4.84172C90.6524 4.98268 90.5873 5.11125 90.5238 5.25376L88.9128 8.41842H92.6847L91.0722 5.20884ZM90.2636 3.54518H91.4098L95.3227 11.1881H94.0773L93.1509 9.30446H88.4589L87.5295 11.1881H86.3213L90.2636 3.54518V3.54518Z" stroke="white" stroke-width="2" stroke-miterlimit="10"/>
<path d="M40.2796 14.895H39.7312V3.22152H40.2796V14.895Z" fill="white"/>
<path d="M10.5105 14.9175L15.4984 14.9129L18.5747 10.1915L14.4698 9.02969C13.2383 10.8606 10.5105 14.9175 10.5105 14.9175Z" fill="white"/>
<path d="M17.9759 12.9743H20.8385L24.3671 7.51402H12.4985C12.4458 7.51402 12.4319 7.5388 12.4272 7.54964C12.4303 7.55119 12.4365 7.55274 12.4458 7.55584C12.734 7.64878 20.1817 9.53395 20.1817 9.53395L17.9759 12.9743Z" fill="white"/>
<path d="M22.0376 12.9743H24.7685L28.3019 7.51402H25.6329L22.0376 12.9743Z" fill="white"/>
<path d="M26.0007 12.9857H26.01C26.6637 12.9857 27.9029 12.9036 28.8711 12.3491C29.7199 11.8565 31.1822 9.55462 32.2929 7.51456H29.4334L26.0007 12.9857Z" fill="white"/>
<path d="M16.0911 6.47586C16.0911 6.47586 30.2832 6.47431 31.0221 6.47431C32.8856 6.47431 34.3913 4.14303 34.9009 3.24304L21.9355 3.24149C18.1822 3.24149 16.5759 5.56813 16.0911 6.47586Z" fill="white"/>
<path d="M135.428 38.2217L42.6399 38.2279L46.1175 15.0544L139.045 15.0513L135.428 38.2217Z" fill="#EA0C80"/>
<path d="M135.428 38.2217L42.6399 38.2279L46.1175 15.0544L139.045 15.0513L135.428 38.2217Z" stroke="#EC008C" stroke-width="11.0732" stroke-miterlimit="10"/>
<path d="M54.5126 35.5154L55.6651 28.2443H53.3601L52.2092 35.5154H47.3623L50.2001 17.6009H55.047L54.0293 24.0154H56.3358L57.352 17.6009H62.1989L59.3611 35.5154H54.5126Z" fill="white"/>
<path d="M67.4162 31.3108C69.2456 31.3108 69.8931 27.6752 70.0696 26.5583C70.2462 25.443 70.7512 21.8059 68.9218 21.8059C67.0924 21.8059 66.4449 25.4415 66.2683 26.5583C66.0933 27.6752 65.5868 31.3108 67.4162 31.3108ZM69.639 17.2921C74.5541 17.2921 75.705 22.187 75.011 26.5599C74.3186 30.9312 71.6187 35.8262 66.7005 35.8262C61.7808 35.8246 60.633 30.9297 61.3238 26.5583C62.0209 22.187 64.7178 17.2921 69.639 17.2921" fill="white"/>
<path d="M80.8189 25.8938C82.1015 25.8938 82.9689 24.7785 83.1533 23.6136C83.4011 22.046 82.5569 21.3799 81.2139 21.4511L80.5153 25.8705L80.8189 25.8938ZM81.6476 35.5163L80.142 28.0562L80.0878 28.1042C79.9731 28.9825 79.8833 29.8624 79.7439 30.7407L78.9833 35.5163H74.1379L76.9789 17.6018H81.6569C85.8625 17.6018 88.7081 18.8379 87.9568 23.5671C87.647 25.539 86.5131 27.2972 84.4653 28.0562L86.8988 35.5179L81.6476 35.5163V35.5163Z" fill="white"/>
<path d="M87.4204 35.5177L90.2582 17.6032H95.1051L92.2689 35.5177H87.4204Z" fill="white"/>
<path d="M92.647 35.5177L99.3434 24.137C99.8019 23.3532 100.483 22.4981 101.111 21.6911C100.154 21.7376 99.0692 21.8336 98.0236 21.8336H95.8844L96.5521 17.6032L108.413 17.6048L101.17 29.8638C100.843 30.4338 100.474 30.9574 100.15 31.5026C101.041 31.4314 101.966 31.2904 102.892 31.2904H105.648L104.979 35.5193L92.647 35.5177Z" fill="white"/>
<path d="M112.25 31.3137C114.083 31.3137 114.727 27.6782 114.904 26.5613C115.08 25.4445 115.585 21.8104 113.756 21.8104C111.925 21.8089 111.279 25.4445 111.102 26.5613C110.927 27.6782 110.418 31.3137 112.25 31.3137ZM114.473 17.295C119.388 17.2966 120.539 22.19 119.845 26.5629C119.153 30.9342 116.454 35.8291 111.534 35.8291C106.615 35.8276 105.467 30.9327 106.158 26.5613C106.852 22.19 109.552 17.295 114.473 17.295Z" fill="white"/>
<path d="M121.81 17.6048H126.42L128.584 28.3922L128.639 28.3457C128.776 26.2778 128.747 24.2346 129.072 22.1682L129.793 17.6048L134.451 17.6063L131.613 35.5208H126.955L124.981 25.1857L124.929 25.2322C124.777 26.9191 124.729 28.5827 124.461 30.2696L123.629 35.5193H118.973L121.81 17.6048Z" fill="white"/>
</g>
<defs>
<clipPath id="clip0_3215_90">
<rect width="140" height="39.0661" fill="white"/>
</clipPath>
</defs>
</svg>
